<svg xmlns="http://www.w3.org/2000/svg" xmlns:xlink="http://www.w3.org/1999/xlink" viewBox="0 0 166.93 35"><defs><style>.cls-1{fill:none;}.cls-2,.cls-3{fill:#fff;}.cls-2{isolation:isolate;opacity:0.5;}.cls-4{fill:url(#linear-gradient);}</style><linearGradient id="linear-gradient" x1="4.11" y1="17.48" x2="31.48" y2="17.48" gradientUnits="userSpaceOnUse"><stop offset="0" stop-color="#3b82f6" stop-opacity="0"/><stop offset="1" stop-color="#3b82f6"/></linearGradient></defs><g id="Layer_2" data-name="Layer 2"><g id="Layer_1-2" data-name="Layer 1"><rect class="cls-1" width="35.06" height="35"/><path class="cls-2" d="M51.7,17.2H44.89V25H41.36V7.82h3.53v6.43h6.79V7.82h3.55V25H51.7Zm17.61,7V25h-3.6a2.18,2.18,0,0,1-.39-1.3,4.75,4.75,0,0,1-3.84,1.56,4,4,0,0,1-3-1.12,3.4,3.4,0,0,1-.91-2.52,3.54,3.54,0,0,1,1.92-3.41,12.72,12.72,0,0,1,3.24-.87l2.59-.48,0-.91c0-.85-.65-1.27-1.92-1.27a3,3,0,0,0-1.72.38,1.9,1.9,0,0,0-.6,1.35H57.91Q58.2,12,63.33,12a6.53,6.53,0,0,1,4.08,1,3.62,3.62,0,0,1,1.13,2.91V23A1.08,1.08,0,0,0,69.31,24.16Zm-4-5.3-2.43.55a3.46,3.46,0,0,0-1.53.69,1.5,1.5,0,0,0-.48,1.13c0,.91.59,1.37,1.77,1.37,1.72,0,2.6-.94,2.64-2.81Zm6.19-6.58h3.31V14.7A3.25,3.25,0,0,1,78.4,12h.65l0,3.26a6.28,6.28,0,0,0-1.24-.12,3.27,3.27,0,0,0-2.26.6,3.25,3.25,0,0,0-.72,2.42V25H71.54Zm9.16,0H84V14.7A3.25,3.25,0,0,1,87.57,12h.64l0,3.26A6.39,6.39,0,0,0,87,15.16a3.27,3.27,0,0,0-2.26.6A3.25,3.25,0,0,0,84,18.18V25H80.7Zm17,0h3.38l-5.23,15a4.12,4.12,0,0,1-1.47,2.21,4.76,4.76,0,0,1-2.71.63,4.37,4.37,0,0,1-2.3-.44l.5-2.23a5.94,5.94,0,0,0,1.44.22,2,2,0,0,0,1.44-.58,1.74,1.74,0,0,0,.6-1.32v-.26L88.59,12.28h3.63l2.83,9.26Zm8.59,0V14.1A3.76,3.76,0,0,1,109.78,12a5.15,5.15,0,0,1,4,2,7.81,7.81,0,0,1,1.37,4.73,7.06,7.06,0,0,1-1.7,4.92,4.72,4.72,0,0,1-3.63,1.6,3.92,3.92,0,0,1-3.52-1.8v6.68h-3.32V12.28Zm2.76,2.5a2.36,2.36,0,0,0-2,1.08,4.67,4.67,0,0,0-.77,2.8,4.66,4.66,0,0,0,.77,2.79,2.46,2.46,0,0,0,4,0,4.66,4.66,0,0,0,.77-2.79,4.67,4.67,0,0,0-.77-2.8A2.36,2.36,0,0,0,109,14.78Zm8.43-7h3.31v6.26A4.47,4.47,0,0,1,127.32,13a4.17,4.17,0,0,1,1.32,3.43V25h-3.32V17.1q0-2.28-2-2.28a2.58,2.58,0,0,0-1.85.7,2.44,2.44,0,0,0-.7,1.8V25h-3.31ZM137.27,12a5.92,5.92,0,0,1,4.82,2,6.87,6.87,0,0,1,1.47,4.61,6.62,6.62,0,0,1-1.9,5.09,6.21,6.21,0,0,1-4.39,1.53,5.94,5.94,0,0,1-4.82-2A7,7,0,0,1,131,18.64a6.57,6.57,0,0,1,1.9-5.06A6.14,6.14,0,0,1,137.27,12Zm0,2.66a2.56,2.56,0,0,0-2.16,1.1,4.67,4.67,0,0,0-.82,2.86,4.58,4.58,0,0,0,.92,3,2.59,2.59,0,0,0,2.06.94,2.57,2.57,0,0,0,2.16-1.08,4.64,4.64,0,0,0,.84-2.88,4.47,4.47,0,0,0-.94-3A2.58,2.58,0,0,0,137.27,14.68ZM152,12.28v2.18h-2.23v7.08a1.43,1.43,0,0,0,.24,1,1.3,1.3,0,0,0,.94.27,3.47,3.47,0,0,0,1.41-.43l.12-.08.39,2.26a7.06,7.06,0,0,1-3.17.74q-3.24,0-3.24-3V14.46h-1.63V12.28h1.63V10.17l3.31-1.9v4Zm8.62-.26a5.93,5.93,0,0,1,4.82,2,6.87,6.87,0,0,1,1.47,4.61,6.66,6.66,0,0,1-1.9,5.09,6.21,6.21,0,0,1-4.39,1.53,6,6,0,0,1-4.83-2,7,7,0,0,1-1.46-4.63,6.57,6.57,0,0,1,1.9-5.06A6.12,6.12,0,0,1,160.64,12Zm0,2.66a2.56,2.56,0,0,0-2.16,1.1,4.6,4.6,0,0,0-.82,2.86,4.63,4.63,0,0,0,.91,3,2.63,2.63,0,0,0,2.07.94,2.59,2.59,0,0,0,2.16-1.08,4.64,4.64,0,0,0,.84-2.88,4.47,4.47,0,0,0-.94-3A2.58,2.58,0,0,0,160.64,14.68Z"/><rect class="cls-3" x="0.41" y="0.1" width="34.76" height="34.76" rx="3.89"/><path class="cls-4" d="M31.48,31.16V7a3.23,3.23,0,0,0-3.23-3.23H4.11"/></g></g></svg>