<svg width="157" height="21" viewBox="0 0 157 21" fill="none" xmlns="http://www.w3.org/2000/svg">
<path d="M14.718 5.506H11.638C11.2127 3.68733 10.0907 2.778 8.272 2.778C6.908 2.778 5.85933 3.32067 5.126 4.406C4.49533 5.35933 4.18 6.628 4.18 8.212C4.18 10.0013 4.576 11.3653 5.368 12.304C6.05733 13.1107 6.98867 13.514 8.162 13.514C9.174 13.514 9.98067 13.25 10.582 12.722C11.1833 12.194 11.5353 11.4387 11.638 10.456H14.784C14.6813 12.3627 13.948 13.8367 12.584 14.878C11.4107 15.7873 9.90733 16.242 8.074 16.242C5.72733 16.242 3.90867 15.4207 2.618 13.778C1.50333 12.3553 0.946 10.478 0.946 8.146C0.946 5.47667 1.67933 3.40867 3.146 1.942C4.422 0.651332 6.08667 0.00599873 8.14 0.00599873C10.5747 0.00599873 12.4153 0.819999 13.662 2.448C14.278 3.25467 14.63 4.274 14.718 5.506ZM27.2797 16H24.2657V14.35C23.4443 15.6113 22.2783 16.242 20.7677 16.242C19.433 16.242 18.421 15.846 17.7317 15.054C17.145 14.3647 16.8517 13.4187 16.8517 12.216V4.34H19.8877V11.578C19.8877 12.9713 20.533 13.668 21.8237 13.668C22.557 13.668 23.1437 13.4627 23.5837 13.052C24.0383 12.6413 24.2657 12.084 24.2657 11.38V4.34H27.2797V16ZM30.1531 4.34H33.1891V6.562C33.5704 4.91933 34.6557 4.098 36.4451 4.098C36.7237 4.098 36.9217 4.098 37.0391 4.098L37.0611 7.09C36.6944 7.01667 36.3131 6.98 35.9171 6.98C34.9197 6.98 34.2304 7.16333 33.8491 7.53C33.4091 7.94067 33.1891 8.68133 33.1891 9.752V16H30.1531V4.34ZM48.5195 15.23V16H45.2195C44.9995 15.7213 44.8821 15.3253 44.8675 14.812C44.0608 15.7653 42.8875 16.242 41.3475 16.242C40.2181 16.242 39.3088 15.8973 38.6195 15.208C38.0621 14.6507 37.7835 13.8807 37.7835 12.898C37.7835 11.4313 38.3701 10.39 39.5435 9.774C40.0421 9.51 41.0321 9.246 42.5135 8.982L44.8895 8.542L44.8675 7.706C44.8528 6.92867 44.2661 6.54 43.1075 6.54C42.3595 6.54 41.8315 6.65733 41.5235 6.892C41.2301 7.112 41.0468 7.52267 40.9735 8.124H38.0695C38.2455 5.44 39.9028 4.098 43.0415 4.098C44.7721 4.098 46.0188 4.406 46.7815 5.022C47.4708 5.60867 47.8155 6.496 47.8155 7.684V14.196C47.8155 14.724 48.0501 15.0687 48.5195 15.23ZM44.8895 10.368L42.6675 10.874C42.0368 11.0207 41.5675 11.2333 41.2595 11.512C40.9661 11.7907 40.8195 12.1353 40.8195 12.546C40.8195 13.382 41.3621 13.8 42.4475 13.8C44.0168 13.8 44.8235 12.942 44.8675 11.226L44.8895 10.368ZM56.0852 4.34V6.342H54.0392V12.832C54.0392 13.2573 54.1126 13.5507 54.2592 13.712C54.4206 13.8733 54.7066 13.954 55.1172 13.954C55.4546 13.954 55.8872 13.822 56.4152 13.558C56.4592 13.5287 56.4959 13.5067 56.5252 13.492L56.8772 15.56C55.9532 16.0147 54.9852 16.242 53.9732 16.242C51.9932 16.242 51.0032 15.3327 51.0032 13.514V6.342H49.5072V4.34H51.0032V2.404L54.0392 0.665999V4.34H56.0852ZM68.9767 10.962H61.1447C61.1887 11.9007 61.3354 12.568 61.5847 12.964C62.01 13.6093 62.6774 13.932 63.5867 13.932C64.716 13.932 65.4714 13.4627 65.8527 12.524H68.8447C68.5074 13.668 67.8474 14.5773 66.8647 15.252C65.8967 15.912 64.76 16.242 63.4547 16.242C61.68 16.242 60.316 15.648 59.3627 14.46C58.5267 13.4187 58.1087 12.0473 58.1087 10.346C58.1087 8.278 58.6514 6.67933 59.7367 5.55C60.69 4.582 61.944 4.098 63.4987 4.098C64.6867 4.098 65.728 4.39133 66.6227 4.978C67.5174 5.56467 68.1554 6.386 68.5367 7.442C68.8447 8.26333 68.9987 9.25333 68.9987 10.412C68.9987 10.5587 68.9914 10.742 68.9767 10.962ZM65.8307 8.96C65.684 7.25867 64.8994 6.408 63.4767 6.408C62.142 6.408 61.3794 7.25867 61.1887 8.96H65.8307ZM81.5518 0.248V16H78.5158V14.702C77.8118 15.7287 76.7484 16.242 75.3258 16.242C73.7858 16.242 72.5464 15.5967 71.6078 14.306C70.8011 13.206 70.3978 11.8347 70.3978 10.192C70.3978 8.24133 70.9111 6.70133 71.9378 5.572C72.8324 4.58933 73.9544 4.098 75.3038 4.098C76.7264 4.098 77.7971 4.64067 78.5158 5.726V0.248H81.5518ZM75.9858 6.584C75.2231 6.584 74.6071 6.914 74.1378 7.574C73.6684 8.234 73.4338 9.09933 73.4338 10.17C73.4338 11.226 73.6611 12.084 74.1158 12.744C74.5851 13.3893 75.2084 13.712 75.9858 13.712C76.7631 13.712 77.3791 13.3893 77.8338 12.744C78.3031 12.0987 78.5378 11.2407 78.5378 10.17C78.5378 9.08467 78.3031 8.21933 77.8338 7.574C77.3644 6.914 76.7484 6.584 75.9858 6.584ZM98.3931 7.42V16H96.4571L96.0611 13.756C94.9024 15.4133 93.3258 16.242 91.3311 16.242C89.0138 16.242 87.1584 15.3913 85.7651 13.69C84.5478 12.194 83.9391 10.346 83.9391 8.146C83.9391 5.55 84.7311 3.49667 86.3151 1.986C87.6938 0.665999 89.4464 0.00599873 91.5731 0.00599873C93.5971 0.00599873 95.2398 0.541332 96.5011 1.612C97.5864 2.52133 98.2171 3.724 98.3931 5.22H95.3571C94.7558 3.592 93.4944 2.778 91.5731 2.778C90.1064 2.778 88.9844 3.306 88.2071 4.362C87.5178 5.30067 87.1731 6.54 87.1731 8.08C87.1731 9.78133 87.6498 11.138 88.6031 12.15C89.4244 13.03 90.4511 13.47 91.6831 13.47C92.9884 13.47 94.0591 12.9933 94.8951 12.04C95.3204 11.5413 95.5771 10.9033 95.6651 10.126H92.0791V7.42H98.3931ZM111.168 15.23V16H107.868C107.648 15.7213 107.531 15.3253 107.516 14.812C106.709 15.7653 105.536 16.242 103.996 16.242C102.867 16.242 101.957 15.8973 101.268 15.208C100.711 14.6507 100.432 13.8807 100.432 12.898C100.432 11.4313 101.019 10.39 102.192 9.774C102.691 9.51 103.681 9.246 105.162 8.982L107.538 8.542L107.516 7.706C107.501 6.92867 106.915 6.54 105.756 6.54C105.008 6.54 104.48 6.65733 104.172 6.892C103.879 7.112 103.695 7.52267 103.622 8.124H100.718C100.894 5.44 102.551 4.098 105.69 4.098C107.421 4.098 108.667 4.406 109.43 5.022C110.119 5.60867 110.464 6.496 110.464 7.684V14.196C110.464 14.724 110.699 15.0687 111.168 15.23ZM107.538 10.368L105.316 10.874C104.685 11.0207 104.216 11.2333 103.908 11.512C103.615 11.7907 103.468 12.1353 103.468 12.546C103.468 13.382 104.011 13.8 105.096 13.8C106.665 13.8 107.472 12.942 107.516 11.226L107.538 10.368ZM116.292 0.248V16H113.256V0.248H116.292ZM122.307 0.248V16H119.271V0.248H122.307ZM135.385 10.962H127.553C127.597 11.9007 127.744 12.568 127.993 12.964C128.418 13.6093 129.086 13.932 129.995 13.932C131.124 13.932 131.88 13.4627 132.261 12.524H135.253C134.916 13.668 134.256 14.5773 133.273 15.252C132.305 15.912 131.168 16.242 129.863 16.242C128.088 16.242 126.724 15.648 125.771 14.46C124.935 13.4187 124.517 12.0473 124.517 10.346C124.517 8.278 125.06 6.67933 126.145 5.55C127.098 4.582 128.352 4.098 129.907 4.098C131.095 4.098 132.136 4.39133 133.031 4.978C133.926 5.56467 134.564 6.386 134.945 7.442C135.253 8.26333 135.407 9.25333 135.407 10.412C135.407 10.5587 135.4 10.742 135.385 10.962ZM132.239 8.96C132.092 7.25867 131.308 6.408 129.885 6.408C128.55 6.408 127.788 7.25867 127.597 8.96H132.239ZM137.532 4.34H140.568V6.562C140.949 4.91933 142.035 4.098 143.824 4.098C144.103 4.098 144.301 4.098 144.418 4.098L144.44 7.09C144.073 7.01667 143.692 6.98 143.296 6.98C142.299 6.98 141.609 7.16333 141.228 7.53C140.788 7.94067 140.568 8.68133 140.568 9.752V16H137.532V4.34ZM153.082 4.34H156.184L151.388 18.112C151.051 19.0947 150.604 19.7693 150.046 20.136C149.489 20.5173 148.66 20.708 147.56 20.708C146.548 20.708 145.844 20.576 145.448 20.312L145.91 18.266C146.438 18.398 146.878 18.464 147.23 18.464C147.744 18.464 148.184 18.288 148.55 17.936C148.917 17.5987 149.1 17.1953 149.1 16.726V16.484L144.766 4.34H148.088L150.684 12.832L153.082 4.34Z" fill="#3B82F6"/>
</svg>
